<svg xmlns="http://www.w3.org/2000/svg" viewBox="0 0 100 100" width="100" height="100">
  <!-- Cat face -->
  <circle cx="50" cy="55" r="30" fill="#ff8c42" stroke="#333" stroke-width="2"/>
  
  <!-- Ears -->
  <path d="M30 35 L35 15 L45 25 Z" fill="#ff8c42" stroke="#333" stroke-width="2"/>
  <path d="M70 35 L65 15 L55 25 Z" fill="#ff8c42" stroke="#333" stroke-width="2"/>
  
  <!-- Inner ears -->
  <path d="M33 30 L37 20 L42 28 Z" fill="#ffb366"/>
  <path d="M67 30 L63 20 L58 28 Z" fill="#ffb366"/>
  
  <!-- Eyes -->
  <ellipse cx="42" cy="50" rx="4" ry="6" fill="#333"/>
  <ellipse cx="58" cy="50" rx="4" ry="6" fill="#333"/>
  <ellipse cx="43" cy="48" rx="1" ry="2" fill="#fff"/>
  <ellipse cx="59" cy="48" rx="1" ry="2" fill="#fff"/>
  
  <!-- Nose -->
  <path d="M50 58 L48 62 L52 62 Z" fill="#ff6b6b"/>
  
  <!-- Mouth -->
  <path d="M50 62 Q45 67 40 62" fill="none" stroke="#333" stroke-width="2" stroke-linecap="round"/>
  <path d="M50 62 Q55 67 60 62" fill="none" stroke="#333" stroke-width="2" stroke-linecap="round"/>
  
  <!-- Whiskers -->
  <line x1="20" y1="55" x2="35" y2="52" stroke="#333" stroke-width="1.5"/>
  <line x1="20" y1="62" x2="35" y2="60" stroke="#333" stroke-width="1.5"/>
  <line x1="80" y1="55" x2="65" y2="52" stroke="#333" stroke-width="1.5"/>
  <line x1="80" y1="62" x2="65" y2="60" stroke="#333" stroke-width="1.5"/>
</svg>